<?xml version="1.0" encoding="UTF-8"?><svg id="b" xmlns="http://www.w3.org/2000/svg" viewBox="0 0 460.281 81.103"><g id="c"><path d="M7.512,59.861v19.617h36.727v-5.721c-15.577-.523-24.896-5.438-30.634-9.189-2.316-1.514-4.324-3.102-6.093-4.706h0Z" style="fill:#27aae1;"></path><path d="M7.512,19.695c1.769-1.605,3.777-3.192,6.093-4.707,5.739-3.752,15.057-8.666,30.634-9.189V0H7.512v19.695Z" style="fill:#1c75bc;"></path><path d="M79.847,64.969c-4.911,2.927-13.844,8.234-30.109,8.785v5.724h36.661v-19.551c-2.2,2.074-4.378,3.749-6.234,4.853,0,0-.318.189-.318.189Z" style="fill:#1c75bc;"></path><path d="M49.738,0v5.802c16.265.551,25.198,5.858,30.109,8.785l.318.189c1.856,1.104,4.034,2.779,6.234,4.853V0h-36.661Z" style="fill:#27aae1;"></path><path id="d" d="M16.711,39.743c0-13.565,8.967-25.075,21.288-28.913-11.835,1.615-19.98,6.231-25.025,10.227-3.49,2.763-6.442,5.931-8.778,9.414-1.956,2.915-3.564,6.723-4.196,9.341.696,2.399,3.917,11.547,13.206,18.872,4.086,3.221,8.793,5.75,14.002,7.516,3.421,1.161,7.075,1.992,10.913,2.491-12.384-3.801-21.409-15.34-21.409-28.949h-.001Z" style="fill:#ffffff;"></path><path id="e" d="M89.778,30.471c-2.335-3.483-5.288-6.65-8.778-9.414-5.045-3.996-13.185-8.612-25.02-10.227,12.315,3.838,21.282,15.348,21.282,28.913s-9.025,25.148-21.404,28.949c3.838-.499,7.486-1.331,10.907-2.491,5.209-1.766,9.922-4.295,14.007-7.516,9.289-7.326,12.505-16.474,13.206-18.872-.638-2.618-2.246-6.426-4.202-9.341h.002Z" style="fill:#ffffff;"></path><path d="M49.738,15.354v4.621c3.963.533,7.586,2.237,10.478,4.777,3.488,3.064,5.893,7.345,6.57,12.229h4.538c-1.25-11.346-10.246-20.355-21.586-21.626h0ZM58.804,26.359c-2.51-2.204-5.641-3.697-9.065-4.215v2.617c.063.011.128.018.191.03.579.11.958.669.848,1.248-.097.507-.542.84-1.039.846v3.15c3.386.916,6.107,3.536,7.114,6.945h2.987c-.115-.543-.261-1.073-.44-1.585-.398-1.137-.947-2.197-1.62-3.157-.336-.483-.218-1.147.264-1.484.483-.337,1.147-.218,1.484.264.786,1.123,1.426,2.357,1.888,3.676.258.738.455,1.503.599,2.285h2.619c-.659-4.238-2.787-7.947-5.83-10.621h0ZM53.677,27.178c-.233.543-.863.794-1.405.56l-.032-.013c-.543-.233-.793-.863-.56-1.405.233-.543.863-.794,1.405-.56l.031.014c.543.233.794.863.56,1.405h.001Z" style="fill:#1c75bc;"></path><path d="M56.882,48.357c1.45-1.651,2.474-3.669,2.948-5.877h-2.897c-.922,3.491-3.653,6.289-7.195,7.243v2.788c2.837-.591,5.321-2.078,7.144-4.154ZM66.799,42.48c-.082.59-.18,1.176-.313,1.75-.443,1.916-1.165,3.734-2.123,5.405-.293.512-.946.689-1.458.396s-.689-.946-.396-1.458c.854-1.488,1.498-3.11,1.893-4.82.097-.419.178-.844.245-1.273h-2.64c-.503,2.746-1.732,5.257-3.517,7.289-2.216,2.523-5.266,4.311-8.752,4.931v2.618c.195-.029.392-.055.584-.09.714-.132,1.4-.302,2.054-.506.563-.175,1.161.139,1.336.701s-.138,1.161-.701,1.336c-.762.237-1.53.429-2.302.572-.322.06-.647.107-.972.151v4.547c11.314-1.268,20.294-10.239,21.577-21.549h-4.515ZM58.202,56.265l-.118.078c-.49.328-1.153.197-1.481-.293-.328-.49-.196-1.153.294-1.481l.118-.079c.49-.328,1.153-.196,1.481.294.328.49.196,1.154-.293,1.482h0Z" style="fill:#27aae1;"></path><path d="M41.424,51.53c.891.427,1.839.738,2.814.954v-2.82c-3.399-.986-6.103-3.694-7.021-7.183h-2.936c.149.704.35,1.385.605,2.035.496,1.265,1.188,2.435,2.036,3.474.372.457.303,1.13-.154,1.502-.457.372-1.13.303-1.502-.154-.98-1.201-1.783-2.563-2.366-4.047-.353-.899-.612-1.841-.791-2.81h-2.615c.675,4.344,2.885,8.138,6.053,10.826,2.433,2.063,5.426,3.463,8.69,3.984v-2.612c-.02-.004-.041-.006-.061-.01-1.292-.249-2.526-.659-3.675-1.21-.533-.254-.758-.893-.503-1.425.254-.532.893-.758,1.425-.503h.001ZM27.341,42.48h-4.693c1.283,11.315,10.27,20.289,21.591,21.551v-4.568c-3.785-.539-7.257-2.143-10.068-4.526-3.628-3.077-6.136-7.451-6.83-12.457Z" style="fill:#1c75bc;"></path><path d="M37.238,31.105c-1.449,1.65-2.473,3.667-2.948,5.875h3.016c.977-3.296,3.576-5.928,6.932-6.898v-3.099c-2.777.612-5.208,2.082-7,4.123h0ZM22.638,36.98h9.476c.504-2.745,1.732-5.256,3.516-7.288,2.185-2.488,5.183-4.256,8.608-4.899v-9.441c-11.347,1.265-20.35,10.277-21.601,21.628h.001ZM36.661,25.281c-1.687,1.216-3.15,2.722-4.32,4.44-1.154,1.695-2.022,3.595-2.537,5.627-.143.572-.723.919-1.294.776-.572-.144-.919-.723-.775-1.295.578-2.278,1.55-4.409,2.845-6.309,1.306-1.918,2.944-3.603,4.838-4.968.478-.344,1.143-.235,1.487.243.343.477.235,1.143-.243,1.487h0Z" style="fill:#27aae1;"></path><path d="M103.041,24.772v-.124c0-12.213,9.423-22.442,22.753-22.442s22.628,10.105,22.628,22.318v.124c0,12.214-9.423,22.443-22.752,22.443s-22.629-10.105-22.629-22.319ZM140.424,24.772v-.124c0-8.432-6.138-15.375-14.755-15.375s-14.632,6.819-14.632,15.251v.124c0,8.432,6.138,15.375,14.756,15.375s14.631-6.819,14.631-15.251Z" style="fill:#ffffff;"></path><path d="M153.57,13.613h7.563v5.456c2.418-3.41,5.827-6.138,11.159-6.138,7.688,0,15.189,6.075,15.189,16.986v.124c0,10.85-7.44,16.987-15.189,16.987-5.456,0-8.865-2.728-11.159-5.766v15.003h-7.563V13.613ZM179.856,30.042v-.124c0-6.323-4.34-10.477-9.361-10.477-5.084,0-9.548,4.215-9.548,10.477v.124c0,6.262,4.464,10.478,9.548,10.478,5.146,0,9.361-4.029,9.361-10.478Z" style="fill:#ffffff;"></path><path d="M192.009,1.09h7.563v17.545c2.107-3.037,5.146-5.703,10.229-5.703,7.377,0,11.655,4.959,11.655,12.523v20.893h-7.502v-18.6c0-5.083-2.542-7.997-7.006-7.997-4.34,0-7.377,3.038-7.377,8.121v18.476h-7.563V1.09h0Z" style="fill:#ffffff;"></path><path d="M228.899,37.296v-17.235h-4.154v-6.447h4.154V4.624h7.501v8.989h8.804v6.447h-8.804v16.058c0,2.914,1.488,4.092,4.03,4.092,1.674,0,3.161-.372,4.649-1.116v6.138c-1.859,1.054-3.905,1.674-6.758,1.674-5.518,0-9.423-2.418-9.423-9.609h0Z" style="fill:#ffffff;"></path><path d="M249.607,1.09h7.563v17.545c2.107-3.037,5.146-5.703,10.229-5.703,7.377,0,11.655,4.959,11.655,12.523v20.893h-7.502v-18.6c0-5.083-2.542-7.997-7.006-7.997-4.34,0-7.377,3.038-7.377,8.121v18.476h-7.563V1.09h.001Z" style="fill:#ffffff;"></path><path d="M282.714,36.924v-.124c0-7.067,5.58-10.539,13.577-10.539,3.658,0,6.262.558,8.804,1.363v-.806c0-4.649-2.852-7.13-8.121-7.13-3.658,0-6.386.807-9.362,2.046l-2.046-5.89c3.658-1.611,7.192-2.665,12.399-2.665,4.898,0,8.556,1.302,10.85,3.657,2.418,2.356,3.534,5.828,3.534,10.105v19.405h-7.316v-4.092c-2.231,2.666-5.642,4.773-10.663,4.773-6.138,0-11.655-3.534-11.655-10.105v.002ZM305.219,34.568v-2.232c-1.922-.744-4.464-1.302-7.439-1.302-4.836,0-7.688,2.046-7.688,5.456v.124c0,3.161,2.79,4.959,6.386,4.959,4.959,0,8.741-2.852,8.741-7.005Z" style="fill:#ffffff;"></path><path d="M318.549,1.09h7.564v45.258h-7.564V1.09Z" style="fill:#ffffff;"></path><path d="M355.439,13.613h7.812l-13.02,33.603c-2.604,6.757-5.518,9.237-10.787,9.237-3.1,0-5.456-.744-7.75-2.046l2.542-5.518c1.364.743,2.852,1.239,4.402,1.239,2.107,0,3.409-.93,4.649-3.72l-13.64-32.796h8.06l9.176,24.303,8.556-24.303h0Z" style="fill:#ffffff;"></path><path d="M369.328,37.296v-17.235h-4.154v-6.447h4.154V4.624h7.501v8.989h8.804v6.447h-8.804v16.058c0,2.914,1.488,4.092,4.03,4.092,1.674,0,3.161-.372,4.649-1.116v6.138c-1.859,1.054-3.905,1.674-6.758,1.674-5.518,0-9.423-2.418-9.423-9.609h.001Z" style="fill:#ffffff;"></path><path d="M390.222,1.462h8.059v7.13h-8.059V1.462ZM390.469,13.613h7.564v32.734h-7.564V13.613Z" style="fill:#ffffff;"></path><path d="M402.87,30.166v-.124c0-9.299,7.191-17.11,17.049-17.11,6.138,0,9.981,2.294,13.081,5.642l-4.711,5.021c-2.294-2.355-4.712-4.092-8.432-4.092-5.456,0-9.485,4.712-9.485,10.415v.124c0,5.828,4.029,10.478,9.795,10.478,3.534,0,6.076-1.611,8.494-4.029l4.525,4.464c-3.224,3.596-7.006,6.138-13.392,6.138-9.733,0-16.925-7.626-16.925-16.926h0Z" style="fill:#ffffff;"></path><path d="M434.242,42.069l3.348-5.083c3.596,2.665,7.378,4.029,10.726,4.029,3.224,0,5.083-1.364,5.083-3.534v-.123c0-2.542-3.472-3.41-7.315-4.588-4.836-1.364-10.229-3.348-10.229-9.548v-.124c0-6.262,5.146-10.043,11.655-10.043,4.092,0,8.556,1.426,12.027,3.72l-2.976,5.331c-3.162-1.922-6.51-3.1-9.237-3.1-2.914,0-4.588,1.426-4.588,3.224v.124c0,2.418,3.534,3.41,7.378,4.65,4.773,1.487,10.167,3.657,10.167,9.547v.124c0,6.882-5.331,10.292-12.151,10.292-4.649,0-9.795-1.612-13.887-4.898h0Z" style="fill:#ffffff;"></path><path d="M131.704,61.97h3.547l.399,10.509,6.252-10.554h2.926l.709,10.554,6.031-10.509h3.858l-9.489,15.631h-3.17l-.754-9.955-6.075,9.955h-3.126s-1.108-15.631-1.108-15.631Z" style="fill:#27aae1;"></path><path d="M157.441,72.722c.111,1.396.954,2.328,2.727,2.328.887,0,1.663-.267,2.639-.954l1.552,2.085c-1.064.887-2.55,1.573-4.567,1.573-3.414,0-5.498-1.995-5.498-5.276,0-1.84.798-3.725,2.15-5.077,1.219-1.22,2.904-2.018,4.9-2.018,3.082,0,4.855,1.995,4.855,4.634,0,.843-.222,1.796-.599,2.705h-8.159ZM157.752,70.616h5.166c.066-.222.111-.487.111-.776,0-.976-.577-1.751-1.951-1.751-.931,0-1.751.377-2.372.998-.421.421-.732.931-.954,1.529Z" style="fill:#27aae1;"></path><path d="M171.253,61.305h3.37l-4.346,16.185h-3.37l4.346-16.185Z" style="fill:#27aae1;"></path><path d="M177.947,61.305h3.37l-4.346,16.185h-3.37l4.346-16.185Z" style="fill:#27aae1;"></path><path d="M183.334,65.605h3.37l-.333,1.241c.82-.753,1.884-1.463,3.214-1.463,2.128,0,3.503,1.309,3.503,3.459,0,.665-.2,1.508-.399,2.262l-1.707,6.385h-3.37l1.751-6.519c.089-.332.155-.775.155-1.063,0-.954-.599-1.464-1.641-1.464-1.33,0-2.195.953-2.572,2.372l-1.796,6.674h-3.37l3.193-11.884h.002Z" style="fill:#27aae1;"></path><path d="M198.053,72.722c.111,1.396.954,2.328,2.727,2.328.887,0,1.663-.267,2.639-.954l1.552,2.085c-1.064.887-2.55,1.573-4.567,1.573-3.414,0-5.498-1.995-5.498-5.276,0-1.84.798-3.725,2.15-5.077,1.219-1.22,2.904-2.018,4.9-2.018,3.082,0,4.855,1.995,4.855,4.634,0,.843-.222,1.796-.599,2.705h-8.159ZM198.364,70.616h5.166c.066-.222.111-.487.111-.776,0-.976-.577-1.751-1.951-1.751-.931,0-1.751.377-2.373.998-.421.421-.731.931-.953,1.529h0Z" style="fill:#27aae1;"></path><path d="M206.92,75.604l1.951-2.018c1.242,1.242,2.572,1.597,3.636,1.597.887,0,1.419-.377,1.419-1.042,0-.443-.555-.754-1.375-1.108-1.862-.799-3.458-1.574-3.458-3.481,0-2.372,1.818-4.168,4.767-4.168,1.929,0,3.703.843,4.678,1.707l-1.818,2.129c-1.153-.909-2.128-1.264-3.104-1.264-.82,0-1.308.377-1.308.997,0,.466.577.799,1.574,1.242,1.552.687,3.259,1.507,3.259,3.37,0,2.594-2.04,4.189-4.878,4.189-1.796,0-3.946-.687-5.343-2.15h0Z" style="fill:#27aae1;"></path><path d="M218.004,75.604l1.951-2.018c1.242,1.242,2.572,1.597,3.636,1.597.887,0,1.419-.377,1.419-1.042,0-.443-.555-.754-1.375-1.108-1.862-.799-3.458-1.574-3.458-3.481,0-2.372,1.818-4.168,4.767-4.168,1.929,0,3.703.843,4.678,1.707l-1.818,2.129c-1.153-.909-2.128-1.264-3.104-1.264-.82,0-1.308.377-1.308.997,0,.466.577.799,1.574,1.242,1.552.687,3.259,1.507,3.259,3.37,0,2.594-2.04,4.189-4.878,4.189-1.796,0-3.946-.687-5.343-2.15h0Z" style="fill:#27aae1;"></path><path d="M237.49,75.36c0-.487.089-.953.222-1.485l1.441-5.387h-1.419l.776-2.883h1.419l.82-3.037h3.37l-.82,3.037h2.793l-.775,2.883h-2.794l-1.33,4.988c-.045.177-.089.398-.089.532,0,.443.288.709.909.709.532,0,1.175-.133,1.729-.377l-.776,2.86c-.665.311-1.529.487-2.438.487-2.04,0-3.038-1.02-3.038-2.328h0Z" style="fill:#27aae1;"></path><path d="M249.727,61.305h3.37l-1.485,5.542c.82-.753,1.885-1.463,3.215-1.463,2.128,0,3.503,1.309,3.503,3.459,0,.665-.2,1.508-.399,2.262l-1.707,6.385h-3.37l1.752-6.519c.088-.332.155-.775.155-1.063,0-.954-.599-1.464-1.641-1.464-1.331,0-2.195.953-2.572,2.372l-1.796,6.674h-3.37l4.346-16.185h0Z" style="fill:#27aae1;"></path><path d="M262.341,65.605h3.37l-.643,2.395c1.197-1.751,2.571-2.771,4.522-2.616l-.953,3.525h-.177c-2.24,0-3.947,1.286-4.789,4.367l-1.153,4.213h-3.37l3.192-11.884h.001Z" style="fill:#27aae1;"></path><path d="M269.457,72.257c0-1.796.775-3.547,2.062-4.833,1.241-1.242,2.927-2.04,4.812-2.04,3.524,0,5.72,2.328,5.72,5.498,0,1.796-.776,3.548-2.062,4.834-1.242,1.241-2.927,2.039-4.812,2.039-3.525,0-5.72-2.327-5.72-5.498ZM277.482,73.942c.82-.799,1.264-2.04,1.264-2.972,0-1.751-1.042-2.704-2.571-2.704-.843,0-1.597.376-2.151.931-.82.798-1.264,2.04-1.264,2.971,0,1.752,1.042,2.705,2.572,2.705.843,0,1.596-.377,2.15-.931h0Z" style="fill:#27aae1;"></path><path d="M283.889,74.252c0-.665.199-1.507.398-2.261l1.708-6.386h3.37l-1.752,6.519c-.089.332-.155.775-.155,1.064,0,.953.599,1.463,1.641,1.463,1.33,0,2.195-.953,2.572-2.372l1.796-6.674h3.369l-3.192,11.884h-3.37l.333-1.241c-.82.754-1.885,1.463-3.215,1.463-2.129,0-3.503-1.308-3.503-3.459Z" style="fill:#27aae1;"></path><path d="M296.015,79.418l1.773-2.306c1.241.82,2.794,1.309,4.279,1.309,1.131,0,1.929-.311,2.571-.954.51-.51.82-1.197,1.087-2.128l.11-.399c-1.241,1.108-2.261,1.574-3.725,1.574-2.283,0-4.412-1.441-4.412-4.146,0-2.04.843-3.813,2.106-5.077,1.197-1.197,2.794-1.907,4.39-1.907,2.04,0,2.993.976,3.614,2.062l.487-1.84h3.37l-2.55,9.556c-.643,2.395-1.131,3.326-2.084,4.279-1.086,1.086-2.571,1.641-4.744,1.641-2.395,0-4.7-.599-6.274-1.663h.002ZM305.902,72.789c.665-.665,1.042-1.485,1.042-2.417,0-1.353-.931-2.173-2.35-2.173-.909,0-1.707.377-2.328.998-.688.688-1.086,1.574-1.086,2.527,0,1.396.931,2.106,2.261,2.106.932,0,1.818-.399,2.461-1.042h0Z" style="fill:#27aae1;"></path><path d="M315.878,61.305h3.37l-1.485,5.542c.82-.753,1.885-1.463,3.215-1.463,2.128,0,3.503,1.309,3.503,3.459,0,.665-.2,1.508-.399,2.262l-1.707,6.385h-3.37l1.752-6.519c.088-.332.155-.775.155-1.063,0-.954-.599-1.464-1.641-1.464-1.331,0-2.195.953-2.572,2.372l-1.796,6.674h-3.37l4.346-16.185h-.001Z" style="fill:#27aae1;"></path><path d="M333.258,75.36c0-.487.088-.953.222-1.485l1.44-5.387h-1.419l.776-2.883h1.419l.82-3.037h3.37l-.82,3.037h2.793l-.775,2.883h-2.794l-1.33,4.988c-.044.177-.089.398-.089.532,0,.443.288.709.909.709.532,0,1.175-.133,1.729-.377l-.776,2.86c-.665.311-1.529.487-2.438.487-2.04,0-3.037-1.02-3.037-2.328h0Z" style="fill:#27aae1;"></path><path d="M345.494,61.305h3.37l-1.485,5.542c.82-.753,1.885-1.463,3.215-1.463,2.128,0,3.503,1.309,3.503,3.459,0,.665-.2,1.508-.399,2.262l-1.707,6.385h-3.37l1.752-6.519c.089-.332.155-.775.155-1.063,0-.954-.599-1.464-1.641-1.464-1.331,0-2.195.953-2.572,2.372l-1.796,6.674h-3.37l4.346-16.185h-.001Z" style="fill:#27aae1;"></path><path d="M359.061,72.722c.11,1.396.953,2.328,2.727,2.328.887,0,1.663-.267,2.639-.954l1.552,2.085c-1.064.887-2.55,1.573-4.567,1.573-3.414,0-5.498-1.995-5.498-5.276,0-1.84.798-3.725,2.15-5.077,1.22-1.22,2.904-2.018,4.899-2.018,3.082,0,4.855,1.995,4.855,4.634,0,.843-.222,1.796-.599,2.705h-8.158ZM359.372,70.616h5.165c.066-.222.111-.487.111-.776,0-.976-.576-1.751-1.951-1.751-.932,0-1.752.377-2.372.998-.422.421-.731.931-.953,1.529Z" style="fill:#27aae1;"></path><path d="M379.545,61.97h11.595l-.82,3.037h-8.203l-.843,3.171h7.206l-.82,2.993h-7.206l-.887,3.281h8.337l-.82,3.037h-11.707l4.169-15.52h-.001Z" style="fill:#27aae1;"></path><path d="M391.914,65.605h3.437l.555,8.07,4.456-8.07h3.637l-7.361,12.172c-1.552,2.417-2.882,3.326-4.899,3.326-1.22,0-2.04-.311-2.771-.82l1.796-2.439c.354.267.864.466,1.308.466.51,0,.843-.133,1.309-.731l-1.464-11.973h-.003Z" style="fill:#27aae1;"></path><path d="M407.034,72.722c.11,1.396.953,2.328,2.727,2.328.887,0,1.663-.267,2.639-.954l1.552,2.085c-1.064.887-2.55,1.573-4.567,1.573-3.414,0-5.498-1.995-5.498-5.276,0-1.84.798-3.725,2.15-5.077,1.22-1.22,2.904-2.018,4.899-2.018,3.082,0,4.855,1.995,4.855,4.634,0,.843-.222,1.796-.599,2.705h-8.158ZM407.345,70.616h5.165c.066-.222.111-.487.111-.776,0-.976-.576-1.751-1.951-1.751-.932,0-1.752.377-2.372.998-.422.421-.731.931-.953,1.529Z" style="fill:#27aae1;"></path><path d="M415.9,75.604l1.951-2.018c1.241,1.242,2.572,1.597,3.636,1.597.887,0,1.419-.377,1.419-1.042,0-.443-.554-.754-1.374-1.108-1.862-.799-3.459-1.574-3.459-3.481,0-2.372,1.818-4.168,4.767-4.168,1.929,0,3.703.843,4.679,1.707l-1.818,2.129c-1.153-.909-2.129-1.264-3.104-1.264-.82,0-1.308.377-1.308.997,0,.466.576.799,1.574,1.242,1.552.687,3.259,1.507,3.259,3.37,0,2.594-2.039,4.189-4.877,4.189-1.796,0-3.947-.687-5.344-2.15h0Z" style="fill:#27aae1;"></path><path d="M432.039,63.344h-2.039l.377-1.374h5.631l-.377,1.374h-2.039l-1.464,5.454h-1.552l1.463-5.454h0ZM437.449,61.97h1.552l1.021,2.882,2.571-2.882h1.686l-1.841,6.828h-1.463l1.241-4.611-2.683,2.993h-.133l-1.087-2.993-1.241,4.611h-1.463l1.84-6.828h0Z" style="fill:#27aae1;"></path></g></svg>