<svg xmlns="http://www.w3.org/2000/svg" xml:space="preserve" width="663" height="353" version="1.1" viewBox="376.7294921875 25.060781478881836 16651.4443359375 8865.700937271118" xmlns:xlink="http://www.w3.org/1999/xlink" style="">
 <defs>
  <style type="text/css">
   
    .fil4 {fill:none}
    .fil1 {fill:#00AFEF}
    .fil2 {fill:#0A67A9}
    .fil0 {fill:#3E4095}
    .fil3 {fill:#3E4095;fill-rule:nonzero}
   
  </style>
 </defs>
 <g id="Layer_x0020_1">
  <metadata id="CorelCorpID_0Corel-Layer"/>
  <g id="_1906853162240">
   <path class="fil0" d="M7033 7362l5 -5 21 -23 9 -10 15 -18 7 -8 19 -26 7 -9 7 -9 9 -14 4 -6 18 -30 5 -8 19 -32c49,-90 87,-192 112,-302 24,-106 36,-215 35,-325 0,-112 -14,-221 -41,-323 -4,-13 -7,-26 -11,-39l-2 -5 -10 -32 -1 -4 -12 -32 -2 -5 -12 -31 0 0 -2 -4 -13 -29 -2 -3 -14 -30 -3 -5 -15 -26 -2 -5 -16 -25 0 0 0 0 -4 -7 -15 -22 -6 -9 -13 -19 -8 -9 -13 -17 -8 -8 -14 -16 0 0 0 -1 -1 0 0 0 0 0 0 0 -12 -13 -9 -9 -10 -9 -3 -3 -9 -8 -15 -13 -8 -6 -16 -13 -8 -5 -5 -4 0 0c-36,-25 -73,-44 -111,-58l-30 -10c-30,-9 -60,-14 -91,-17 -32,-2 -64,-1 -96,4l-32 6c-32,7 -64,18 -96,32l-31 16 -4 2 -21 12 -2 2 -10 6 -12 7 0 1 -5 3 -11 8 -8 6 -8 6 -10 8 -4 3 -1 1 -10 9 -1 1 -10 8 -2 2 -10 9 -10 9 -1 1 -3 3 -7 8 -12 13 -4 4 -7 7 -7 8 -4 4 -2 4 -3 3 -6 7 -2 3 -11 14 -4 5 -2 2 -2 2 -1 2 -4 6 -9 13 -3 4 -2 2 -2 3 -5 8 -4 5 0 1 -14 21 -2 3 0 0 0 1 -11 18 -5 8 -4 8 -1 1 -3 4 1 0 -1 1 0 0 -12 22 0 1 0 0 -6 11 -2 5 -4 7 0 0 -4 9 -6 13 -1 2 -1 0 -2 7 -2 2 -2 6 -4 9 -2 4 -3 9 -4 8 -2 4 0 0 -5 14 -4 9 -1 5 -1 1 -8 23 -3 9 0 1 -1 2 -3 7 -5 18 -1 1 0 1 -3 8 -3 11 -3 10 0 0 0 0 -1 3 -4 15 -5 17 -1 5 -1 2 0 1 -3 13 -5 20 -1 7 -1 3 -2 8 -4 23 0 0 -1 1 -1 7 -1 5 -2 9 -5 30 -1 6 -1 11 -2 11 -1 8 -2 17 -2 13 0 2 0 5 -1 12 -2 14 -1 12 0 6 0 6 -1 3 0 4 0 0 0 1 0 5 -1 13 -1 19 0 7 0 10 -1 8 0 17 0 0 0 3 0 5 0 16 1 22 0 0 0 0 0 1c2,83 12,165 29,244 14,63 32,123 54,178 22,55 48,106 78,152 30,46 63,88 99,123 22,22 46,42 70,59 16,11 32,21 48,31 43,23 88,40 133,50 47,9 94,11 141,5 47,-6 93,-19 138,-39 44,-20 87,-48 127,-81l25 -21 7 -7 19 -18z"/>
   <path class="fil1" d="M8276 3119c8,-35 10,-74 6,-115 -3,-40 -12,-82 -26,-123 -6,-21 -15,-41 -24,-61 -9,-19 -19,-38 -30,-56 -11,-17 -22,-34 -35,-50 -12,-16 -25,-31 -39,-44 -13,-14 -28,-27 -43,-38l-6 -4c-13,-10 -27,-18 -41,-25 -17,-9 -35,-15 -52,-19 -19,-5 -38,-7 -56,-6 -39,1 -76,15 -105,40 -27,23 -49,54 -62,93 -12,36 -18,76 -16,120 1,43 9,89 23,135 8,23 16,46 26,68 10,21 21,42 33,62 13,19 26,38 40,55 14,17 28,34 44,48 12,12 25,22 39,32l10 6c17,12 34,21 52,28 19,8 38,13 57,15 20,2 40,1 59,-3 39,-8 72,-28 98,-59 22,-26 39,-60 48,-99z"/>
   <path class="fil2" d="M7518 5028c3,83 17,167 41,249 24,83 57,159 99,227 44,74 96,134 154,179l17 13c58,40 117,64 178,71 67,8 133,-7 191,-42 54,-33 99,-81 134,-144 33,-58 56,-128 69,-205 11,-73 14,-151 6,-230 -6,-75 -22,-150 -45,-222 -23,-72 -53,-139 -89,-199 -40,-65 -84,-119 -134,-163 -12,-11 -26,-21 -40,-31 -41,-30 -86,-51 -130,-62 -62,-17 -126,-14 -184,7 -58,21 -109,60 -152,115 -40,52 -72,118 -91,195 -19,75 -27,156 -24,242z"/>
   <path class="fil1" d="M5703 860c-5,-22 -13,-45 -24,-67 -9,-21 -20,-42 -33,-63 -12,-20 -26,-40 -42,-59 -15,-19 -31,-37 -48,-54 -18,-18 -36,-34 -56,-50l-26 -20 -35 -23c-21,-13 -43,-25 -66,-35 -22,-10 -46,-19 -70,-26 -49,-14 -96,-18 -139,-13 -47,5 -87,21 -121,48 -34,27 -60,65 -72,109 -13,44 -14,93 -2,145 5,25 13,51 24,76 10,24 23,48 38,72 14,23 30,45 48,67 18,21 37,41 57,60 20,19 42,37 64,53l3 1c21,16 43,30 66,42 24,12 48,23 73,32 25,9 50,16 74,20 51,8 97,6 139,-6 42,-12 79,-35 106,-66 26,-30 44,-69 51,-112 6,-41 3,-85 -9,-131z"/>
   <path class="fil2" d="M2784 1861c13,11 26,21 40,30 84,60 176,109 273,146 107,41 216,66 325,74 107,8 207,0 299,-25 96,-26 178,-69 245,-127 67,-58 115,-129 141,-210 25,-76 29,-158 15,-242 -14,-81 -46,-161 -93,-239 -48,-78 -112,-152 -189,-219 -27,-24 -57,-47 -87,-69 -53,-38 -111,-72 -171,-102 -94,-45 -193,-79 -293,-99 -104,-21 -206,-26 -302,-17 -107,11 -203,40 -285,86 -89,51 -156,118 -200,201 -43,82 -61,176 -52,274 10,95 43,191 101,284 58,93 136,179 233,254z"/>
   <path class="fil0" d="M5075 6776c21,-143 20,-283 -3,-414 -23,-132 -67,-251 -131,-354 -56,-90 -127,-166 -210,-226 -17,-12 -34,-23 -52,-33l-11 -7 -7 -4 -3 -2 -2 -1 -12 -6 -1 -1 -1 0 -2 -1 -4 -2 -4 -2 -2 -1 -22 -11 -5 -2 -9 -4 -1 -1 -25 -10 -3 -1c-12,-5 -25,-9 -37,-13l-1 -1 -11 -3 -2 -1 -1 0 0 0 -17 -5 -4 -1 -17 -5 -2 0 -2 -1 -18 -4 -5 -1 -3 0 -14 -3 -3 -1 -3 0 -16 -3 -4 -1 -1 0 -3 0 -14 -2 -4 -1 -6 -1 -13 -1 -2 0 -1 0 -9 -1 -11 -1 -4 -1 -9 0 -7 -1 -3 0 -27 -1 0 1 0 -1 -8 0 -8 0 -7 0 -25 1 -10 0 -5 0 -11 1 -20 2 -13 1 -12 1 -15 2 -13 2 -9 1 -16 3 -11 2 -10 1 -14 3 -13 3 -3 1 -12 2 -7 2 -12 3 -13 4 -6 1 -1 0 -3 1 -31 9 -7 2 -10 4 -31 11 0 0 -5 1 -1 0 -3 1 -36 14 -9 4 -7 3 -25 11 -12 5 -4 2 -12 6 -16 8 -5 2 -8 5 -7 3 -19 10 -22 12 -25 15 -20 12 -25 16 -6 3 -14 10 -16 10 0 0 -9 7 -23 17 -14 9 -1 2 -6 4 -10 7 -10 8 -2 2 -15 12 -5 4 -2 1 -5 4 -34 29 -7 6 -6 6 -24 22 -11 11 -4 3 -10 9 -19 20 -11 9 -1 2 -11 11 -14 15 -9 9 -11 13 -12 13 -6 8 -1 0 0 0 -1 1 0 1 0 0 -2 2 0 0 -1 1 0 0 0 0c-51,59 -99,122 -143,190 -102,155 -177,322 -224,495 -47,175 -64,346 -48,511 17,170 66,322 147,450 56,87 126,161 206,219 43,30 90,57 138,77 139,60 290,79 451,55 147,-20 292,-75 435,-161 134,-82 258,-187 368,-314 109,-125 199,-266 269,-419 68,-148 113,-299 135,-451z"/>
   <path class="fil0" d="M3261 3842c-7,-63 -22,-124 -44,-183 -21,-58 -49,-113 -82,-165 -33,-51 -72,-100 -116,-145 -40,-40 -85,-79 -134,-113l-11 -8c-53,-37 -111,-70 -172,-98 -61,-29 -127,-52 -195,-71 -69,-20 -143,-34 -216,-42 -77,-10 -158,-12 -238,-9 -163,6 -324,37 -477,91 -156,55 -298,132 -421,229 -131,103 -235,222 -308,354 -80,144 -120,296 -117,450 1,80 13,158 37,233 23,73 57,143 100,208 42,64 94,123 153,176 29,25 59,50 91,72 33,24 67,46 103,66 70,39 146,71 226,97 78,25 161,43 246,54 85,11 172,15 259,12 39,-2 78,-5 117,-10 27,-3 54,-6 81,-11 22,-3 44,-7 65,-12 19,-3 37,-8 55,-12l16 -4 13 -3 36 -10 10 -3 34 -10 12 -4 17 -6c16,-6 31,-11 46,-16l9 -4 13 -5 0 0 1 0 12 -5 10 -4 12 -5 12 -5 8 -3 0 -1c52,-22 103,-48 152,-76 133,-77 248,-171 342,-279 91,-106 159,-221 201,-342 43,-125 57,-252 42,-378z"/>
   <polygon class="fil1" points="6989,1137 7399,1002 7333,1487 7676,1969 7286,1924 7213,2450 6855,1785 6234,1624 6646,1311 6452,741 "/>
   <path class="fil0" d="M11867 2397c0,38 2,76 8,112 5,36 14,69 27,97 12,28 29,51 49,68 21,17 46,26 77,26 55,0 96,-20 122,-60 26,-40 43,-101 54,-183l296 2c-7,151 -48,266 -122,345 -74,78 -189,117 -347,116 -119,-1 -213,-22 -279,-62 -67,-41 -116,-95 -147,-161 -31,-66 -51,-140 -57,-223 -7,-82 -10,-164 -9,-246 0,-87 7,-171 19,-252 13,-80 37,-152 73,-214 37,-63 88,-113 155,-149 67,-37 157,-55 268,-54 96,1 174,17 235,49 61,32 109,76 144,134 35,57 58,127 70,208 12,81 18,172 17,272l0 75 -652 -4 -1 104zm330 -432c-4,-38 -13,-70 -24,-97 -12,-27 -29,-47 -50,-61 -21,-14 -49,-21 -82,-21 -34,0 -61,8 -83,23 -21,15 -39,35 -52,60 -13,25 -22,52 -28,83 -5,30 -8,61 -9,92l0 51 337 2c-1,-50 -4,-94 -9,-132zm-1397 -806l-3 559 4 0c65,-111 169,-166 314,-165 106,1 186,30 242,88 56,59 84,153 83,284l-6 964 -329 -2 5 -897c1,-67 -10,-115 -33,-141 -21,-27 -57,-41 -107,-41 -116,-1 -174,71 -175,214l-6 863 -329 -2 11 -1726 329 2zm-398 283l-373 -3 -9 1441 -344 -2 9 -1441 -372 -2 2 -285 1089 7 -2 285z"/>
   <path class="fil0" d="M16319 4744c0,57 14,102 44,137 29,35 71,52 127,53 51,0 92,-13 122,-38 31,-26 46,-64 46,-116 0,-42 -11,-74 -35,-96 -24,-21 -51,-39 -83,-52l-231 -86c-91,-33 -159,-79 -205,-138 -46,-59 -68,-135 -68,-227 1,-53 9,-103 27,-150 18,-48 46,-89 85,-124 38,-36 87,-64 147,-84 60,-21 132,-31 217,-30 149,1 260,34 331,99 72,65 107,156 106,274l0 53 -297 -2c1,-68 -10,-117 -31,-149 -21,-32 -59,-48 -113,-48 -42,0 -78,11 -109,35 -31,23 -47,58 -47,104 0,33 9,62 29,87 20,26 57,48 113,66l198 70c103,36 176,82 219,140 43,57 63,135 63,234 -1,69 -13,129 -37,180 -24,50 -58,92 -100,126 -42,33 -93,57 -151,71 -58,14 -123,21 -193,21 -92,-1 -169,-10 -230,-28 -61,-18 -110,-45 -145,-81 -36,-36 -61,-79 -75,-130 -13,-51 -20,-108 -20,-170l0 -46 297 2 -1 43zm-993 -120c0,39 3,76 8,112 5,37 14,69 27,97 12,29 29,51 50,68 20,17 46,26 76,26 56,1 96,-19 122,-59 26,-40 44,-102 54,-184l296 2c-7,152 -48,267 -122,345 -73,79 -189,117 -347,116 -119,-1 -212,-21 -279,-62 -66,-41 -116,-94 -147,-161 -31,-66 -51,-140 -57,-222 -7,-83 -10,-165 -9,-247 0,-87 7,-171 19,-251 13,-81 37,-152 73,-215 37,-62 88,-112 155,-149 68,-36 157,-54 268,-54 96,1 174,17 235,49 62,32 109,77 144,134 35,57 58,127 70,208 12,82 18,173 18,272l-1 75 -652 -4 -1 104zm330 -432c-4,-38 -12,-70 -24,-97 -12,-26 -29,-46 -50,-60 -21,-14 -49,-21 -82,-21 -34,-1 -61,7 -83,22 -21,15 -39,35 -52,60 -12,25 -22,53 -28,83 -5,31 -8,61 -9,92l0 51 337 2c-1,-50 -4,-94 -9,-132zm-838 -749l-3 373 192 1 -2 227 -191 -1 -4 703c-1,52 6,89 21,110 15,22 47,33 95,34 13,0 25,-1 38,-1 13,-1 25,-2 36,-4l-2 232c-36,0 -72,1 -106,3 -34,3 -71,4 -109,3 -63,0 -116,-5 -156,-14 -41,-9 -72,-27 -93,-54 -21,-27 -36,-62 -44,-105 -7,-44 -11,-99 -10,-165l4 -744 -167 -1 2 -228 167 2 2 -373 330 2zm-1161 1170c0,39 2,76 7,113 6,36 15,68 27,96 13,29 29,51 50,68 21,17 46,26 76,26 56,1 96,-19 122,-59 26,-40 44,-102 54,-184l296 2c-7,152 -48,267 -121,345 -74,79 -190,117 -347,116 -120,-1 -213,-21 -280,-62 -66,-41 -115,-94 -147,-160 -31,-67 -50,-141 -57,-223 -6,-83 -10,-165 -9,-247 1,-87 7,-171 20,-251 12,-81 36,-152 73,-215 36,-63 88,-112 155,-149 67,-36 156,-54 267,-54 96,1 174,17 235,49 61,32 109,77 144,134 35,57 58,127 70,208 13,82 18,172 18,272l0 75 -653 -4 0 104zm330 -432c-5,-38 -13,-70 -25,-97 -12,-26 -28,-47 -50,-60 -21,-14 -48,-21 -82,-21 -33,-1 -61,7 -83,22 -21,15 -38,35 -51,60 -13,25 -23,53 -28,83 -6,31 -9,62 -9,92l0 51 336 2c-1,-50 -4,-94 -8,-132zm-1374 591c21,72 68,108 141,108 72,1 119,-35 141,-106 22,-72 33,-179 34,-320 1,-142 -9,-249 -30,-321 -21,-72 -68,-108 -139,-108 -73,-1 -121,35 -143,106 -22,72 -33,179 -34,320 -1,142 9,249 30,321zm-23 -1396l-4 546 5 0c35,-51 75,-90 119,-115 44,-26 97,-38 159,-38 135,1 234,55 298,163 63,107 93,282 92,524 -2,242 -35,415 -99,519 -65,104 -164,156 -300,155 -66,0 -123,-13 -168,-37 -45,-25 -86,-68 -122,-129l-5 0 -1 137 -315 -2 11 -1726 330 3zm-1415 783c1,-75 13,-139 37,-189 25,-51 57,-92 98,-123 41,-31 88,-53 143,-67 56,-13 114,-19 176,-19 99,1 179,11 239,31 60,19 107,47 140,83 34,35 56,78 67,127 12,49 18,103 17,161l-4 684c0,61 2,109 8,143 5,34 15,70 31,109l-315 -2c-11,-21 -20,-44 -25,-67 -5,-23 -10,-46 -15,-69l-5 0c-38,67 -83,111 -133,131 -50,20 -116,29 -195,29 -57,-1 -106,-11 -146,-31 -39,-21 -71,-49 -95,-84 -23,-36 -41,-76 -51,-120 -11,-45 -16,-89 -16,-132 0,-62 7,-114 20,-158 13,-45 33,-83 59,-114 27,-31 60,-57 101,-78 41,-20 90,-39 147,-54l187 -50c49,-12 84,-30 103,-52 19,-23 29,-56 29,-99 1,-50 -11,-89 -34,-118 -22,-28 -62,-42 -118,-43 -50,0 -89,15 -115,45 -25,31 -38,72 -39,123l0 37 -296 -2 0 -32zm528 329c-25,10 -48,18 -69,22 -67,14 -115,38 -144,72 -29,34 -43,79 -44,137 0,51 9,93 28,129 19,35 51,53 95,54 23,0 46,-4 70,-11 24,-7 46,-18 66,-34 20,-16 36,-37 49,-63 13,-26 19,-56 20,-92l1 -256c-22,18 -46,32 -72,42zm-683 -697l-8 1300 -330 -2 8 -1300 330 2zm3 -445l-2 285 -330 -2 2 -285 330 2zm-1051 12c119,1 215,22 288,62 73,40 130,96 170,170 40,74 67,162 81,265 13,103 20,219 19,346 -1,151 -11,283 -30,395 -19,112 -51,204 -96,276 -45,72 -105,126 -180,161 -75,35 -170,52 -285,51l-542 -3 11 -1726 564 3zm-77 1470c61,0 109,-10 146,-31 37,-20 66,-55 88,-103 22,-48 37,-112 44,-191 8,-79 12,-177 13,-295 0,-98 -2,-184 -8,-258 -6,-74 -19,-136 -38,-185 -20,-50 -49,-87 -88,-112 -39,-25 -91,-38 -156,-39l-146 -1 -7 1214 152 1z"/>
   <path class="fil0" d="M14369 6823c-1,38 2,76 7,112 6,36 14,69 27,97 13,28 29,51 50,68 21,17 46,25 76,26 56,0 97,-20 122,-60 26,-40 44,-101 54,-183l296 2c-7,151 -48,266 -121,345 -74,78 -190,117 -347,116 -120,-1 -213,-22 -280,-63 -66,-40 -115,-94 -147,-160 -31,-66 -50,-141 -57,-223 -6,-82 -10,-164 -9,-246 1,-87 7,-171 20,-252 12,-80 36,-152 73,-214 36,-63 87,-113 155,-149 67,-37 156,-55 267,-54 96,0 174,17 235,49 62,31 110,76 144,133 35,58 58,127 70,209 13,81 19,172 18,272l0 75 -653 -5 0 105zm330 -432c-5,-38 -13,-70 -25,-97 -11,-27 -28,-47 -50,-61 -21,-14 -48,-21 -82,-21 -33,0 -61,7 -82,22 -22,16 -39,36 -52,61 -13,24 -22,52 -28,83 -6,30 -9,61 -9,91l0 51 337 2c-2,-49 -5,-93 -9,-131zm-1016 -378l0 174 4 0c34,-63 75,-113 123,-150 48,-38 106,-56 175,-56l30 1 30 4 -3 319c-17,-1 -34,-3 -51,-4 -17,-1 -34,-1 -51,-1 -29,0 -58,3 -86,11 -29,8 -56,22 -80,40 -24,18 -43,42 -57,72 -15,30 -22,66 -23,110l-4 781 -330 -3 8 -1300 315 2zm-547 -376l-2 372 191 2 -1 227 -191 -1 -5 703c0,52 7,88 22,110 15,22 46,33 94,33 13,0 26,0 38,0 13,-1 25,-2 36,-4l-1 232c-37,0 -72,1 -107,3 -34,2 -70,3 -108,3 -64,0 -116,-5 -157,-14 -40,-9 -71,-27 -92,-54 -22,-27 -36,-62 -44,-106 -7,-43 -11,-98 -11,-164l5 -745 -167 -1 1 -227 167 1 3 -372 329 2zm-1211 365l-1 152 5 0c36,-64 81,-111 137,-141 56,-29 120,-44 192,-43 105,0 185,30 242,88 56,59 83,153 82,284l-5 964 -330 -2 5 -897c1,-67 -10,-115 -32,-141 -22,-27 -58,-41 -107,-41 -116,-1 -175,71 -176,214l-5 863 -330 -2 8 -1301 315 3zm-1072 798c-1,38 2,76 7,112 6,36 14,69 27,97 13,28 29,51 50,68 20,17 46,26 76,26 56,0 97,-20 122,-60 26,-40 44,-101 54,-183l296 2c-7,151 -48,266 -121,345 -74,78 -190,117 -348,116 -119,-1 -212,-22 -279,-63 -66,-40 -115,-94 -147,-160 -31,-66 -50,-141 -57,-223 -6,-82 -10,-164 -9,-246 1,-87 7,-171 19,-252 13,-80 37,-152 73,-214 37,-63 88,-113 155,-149 68,-37 157,-55 268,-54 96,0 174,17 235,49 62,31 109,76 144,133 35,58 58,127 70,209 13,81 18,172 18,272l-1 75 -652 -5 0 105zm330 -432c-5,-38 -13,-70 -25,-97 -12,-27 -28,-47 -50,-61 -21,-14 -49,-21 -82,-21 -33,0 -61,7 -82,22 -22,16 -39,36 -52,61 -13,24 -22,52 -28,83 -6,30 -9,61 -9,92l-1 50 337 3c-1,-50 -4,-94 -8,-132zm-1124 -496c-28,-57 -82,-86 -160,-87 -43,0 -79,11 -107,35 -28,23 -50,60 -66,113 -16,52 -28,120 -35,205 -7,85 -11,188 -12,310 0,131 3,237 11,317 9,81 22,143 40,188 18,44 41,74 69,90 28,15 60,23 96,23 31,1 59,-4 85,-15 27,-10 49,-31 69,-62 19,-31 34,-76 46,-133 12,-57 17,-132 18,-226l344 2c-1,94 -8,183 -23,266 -15,84 -42,157 -82,220 -39,62 -94,111 -165,146 -71,35 -164,52 -277,52 -129,-1 -231,-23 -307,-65 -76,-43 -135,-104 -175,-183 -40,-79 -65,-173 -77,-283 -11,-110 -16,-231 -15,-363 1,-130 7,-251 20,-361 13,-111 39,-205 80,-284 42,-78 101,-140 177,-183 77,-44 180,-66 309,-65 123,1 219,22 290,62 70,41 123,93 157,155 35,62 57,129 65,201 9,72 12,139 12,202l-344 -2c1,-126 -14,-217 -43,-275z"/>
   <g>
    <path class="fil0" d="M15319 6079c18,0 31,4 41,13 10,9 14,23 14,41 0,15 -3,26 -9,35l-26 17 0 1 23 10 9 26 1 13 0 16 2 25 7 13 0 1 -45 0 -4 -10 -1 -12 -1 -41 -6 -19 -19 -7 -22 -1 -1 90 -42 -1 1 -211 78 1zm-18 92l23 -7 8 -25c0,-19 -9,-29 -29,-29l-20 0 0 61 18 0zm165 14c-1,87 -70,156 -156,156 -85,-1 -154,-71 -154,-158 1,-86 71,-156 156,-155 86,0 154,71 154,157l0 0zm20 0c1,-97 -77,-177 -174,-177 -96,-1 -175,78 -175,175 -1,98 77,177 173,178 97,0 175,-78 176,-176z"/>
   </g>
   <path class="fil3" d="M2617 9055l177 585 0 7 -115 0 -39 -141 -183 0 -38 141 -113 0 0 -7 176 -585 135 0zm-131 346l125 0 -63 -225 -62 225zm705 259c-50,0 -90,-16 -122,-48 -32,-31 -48,-85 -48,-161 0,-52 9,-95 26,-129 18,-35 40,-60 67,-76 28,-16 56,-24 86,-24 21,0 41,3 58,9 18,6 37,16 59,30l-36 81c-16,-10 -30,-16 -41,-20 -11,-4 -22,-5 -33,-5 -24,0 -44,11 -58,33 -15,22 -22,55 -22,100 0,42 7,71 22,87 14,16 33,24 57,24 14,0 27,-2 40,-8 12,-5 26,-13 41,-24l37 80c-44,34 -89,51 -133,51zm365 0c-38,0 -71,-10 -97,-29 -27,-20 -47,-46 -60,-79 -13,-33 -19,-70 -19,-111 0,-53 8,-95 25,-127 17,-32 39,-56 67,-70 28,-14 59,-22 94,-22 38,0 71,10 97,28 27,19 47,45 60,77 13,33 19,71 19,115 0,50 -8,92 -24,124 -17,33 -39,57 -67,72 -28,15 -60,22 -95,22zm5 -92c28,0 47,-12 58,-35 12,-22 17,-53 17,-92 0,-42 -6,-73 -18,-94 -12,-22 -30,-32 -55,-32 -27,0 -47,10 -59,31 -12,21 -18,53 -18,95 0,39 6,70 19,93 12,22 31,34 56,34zm691 -346c32,0 57,11 74,32 17,21 26,51 26,91l0 302 -103 0 0 -265c0,-24 -3,-41 -9,-51 -6,-10 -16,-15 -29,-15 -19,0 -41,8 -67,26l0 3 0 302 -102 0 0 -265c0,-24 -3,-41 -9,-51 -6,-10 -16,-15 -29,-15 -20,0 -42,8 -67,26l0 305 -102 0 0 -408 102 -12 0 36c35,-27 71,-41 109,-41 38,0 66,16 82,46 21,-14 41,-26 61,-34 21,-8 42,-12 63,-12zm415 0c47,0 82,18 104,53 23,36 34,88 34,158 0,53 -9,97 -27,131 -17,33 -40,58 -68,73 -27,15 -57,23 -88,23 -19,0 -38,-3 -58,-10l0 167 -103 0 0 -578 103 -12 0 34c35,-26 69,-39 103,-39zm-63 348c30,0 53,-12 70,-35 17,-23 25,-57 25,-102 0,-30 -2,-54 -7,-70 -4,-17 -11,-29 -21,-36 -9,-8 -23,-11 -39,-11 -21,0 -43,8 -68,25l0 224c14,3 27,5 40,5zm447 -348c45,0 78,11 101,32 22,21 34,56 34,104l0 289 -88 0 -8 -32c-19,17 -37,28 -56,35 -18,7 -38,10 -58,10 -21,0 -40,-5 -57,-15 -16,-9 -28,-23 -37,-40 -9,-18 -14,-38 -14,-60 0,-48 20,-85 60,-110 40,-25 91,-40 155,-43l0 -10c0,-17 -1,-30 -4,-40 -3,-10 -8,-17 -15,-21 -7,-5 -17,-7 -29,-7 -32,0 -69,15 -109,46l-40 -75c27,-21 54,-37 80,-47 26,-10 55,-16 85,-16zm-76 307c0,14 3,24 10,31 6,7 16,10 29,10 21,0 44,-8 69,-24l0 -80c-37,3 -65,10 -82,21 -18,12 -26,26 -26,42zm539 -307c35,0 61,11 79,32 18,21 27,52 27,92l0 301 -103 0 0 -265c0,-17 -1,-30 -4,-39 -3,-10 -8,-17 -14,-21 -7,-4 -16,-6 -29,-6 -20,0 -44,9 -72,29l0 302 -103 0 0 -408 103 -12 0 40c19,-14 38,-25 57,-33 19,-8 38,-12 59,-12zm517 14l0 7 -104 389c-13,47 -27,85 -43,114 -16,28 -35,50 -57,63 -22,14 -49,21 -80,21 -28,0 -53,-6 -76,-17l26 -86c13,6 27,9 42,9 12,0 23,-2 33,-6 9,-4 19,-13 28,-26 9,-13 18,-32 26,-57l-28 0 -127 -404 0 -7 108 0 60 220c5,17 10,41 17,74 5,-24 10,-48 16,-72l52 -222 107 0zm360 424c-33,0 -62,-5 -87,-14 -26,-10 -50,-24 -72,-43l44 -79c18,16 37,28 57,35 19,7 38,11 55,11 17,0 29,-3 37,-10 8,-6 12,-14 12,-24 0,-7 -1,-13 -5,-18 -3,-5 -9,-10 -18,-16 -10,-5 -23,-10 -42,-16l-22 -8c-36,-12 -63,-28 -79,-47 -16,-20 -24,-46 -24,-80 0,-25 6,-48 18,-67 11,-20 28,-35 49,-46 21,-10 46,-16 73,-16 52,0 98,15 140,45l-40 80c-21,-13 -38,-22 -53,-27 -14,-5 -29,-7 -46,-7 -13,0 -22,3 -29,8 -6,6 -9,13 -9,21 0,6 1,11 4,15 2,4 7,8 14,11 7,3 18,8 32,12l26 9c39,12 68,29 86,51 18,22 28,49 28,83 0,26 -6,50 -17,70 -11,21 -27,37 -50,49 -22,12 -50,18 -82,18zm536 -256c0,12 -1,34 -3,64l-219 0c3,34 13,59 28,76 16,16 35,24 57,24 16,0 32,-3 47,-8 15,-6 31,-15 48,-27l35 75c-18,16 -39,29 -63,38 -24,9 -49,14 -77,14 -34,0 -64,-7 -90,-22 -27,-15 -48,-38 -64,-70 -16,-32 -24,-73 -24,-124 0,-46 7,-86 20,-119 14,-34 33,-59 59,-77 25,-17 55,-26 90,-26 34,0 62,8 86,24 23,16 41,38 53,65 11,27 17,58 17,93zm-156 -98c-17,0 -31,7 -41,20 -10,13 -18,34 -22,62l117 0 0 -3c0,-28 -5,-48 -15,-60 -10,-12 -23,-19 -39,-19zm475 324c-30,20 -63,30 -100,30 -18,0 -36,-4 -51,-13 -16,-9 -29,-23 -39,-43 -10,-19 -15,-44 -15,-74l0 -196 -63 0 0 -98 63 0 0 -92 102 -17 0 109 95 0 -11 98 -84 0 0 177c0,18 3,31 8,38 5,8 13,11 22,11 7,0 14,-1 21,-3 6,-2 15,-5 24,-10l28 83zm564 -403l0 420 -88 0 -8 -33c-39,31 -79,46 -120,46 -34,0 -60,-11 -79,-34 -19,-22 -28,-53 -28,-93l0 -294 103 -12 0 269c0,25 3,42 10,53 6,11 18,16 36,16 18,0 42,-9 71,-28l0 -298 103 -12zm319 -5c47,0 82,18 104,53 23,36 34,88 34,158 0,53 -9,97 -27,131 -17,33 -40,58 -68,73 -27,15 -57,23 -88,23 -19,0 -38,-3 -58,-10l0 167 -103 0 0 -578 103 -12 0 34c35,-26 69,-39 103,-39zm-63 348c30,0 54,-12 70,-35 17,-23 25,-57 25,-102 0,-30 -2,-54 -7,-70 -4,-17 -11,-29 -21,-36 -9,-8 -22,-11 -39,-11 -21,0 -43,8 -68,25l0 224c14,3 27,5 40,5zm783 -343l0 420 -87 0 -9 -33c-39,31 -79,46 -120,46 -34,0 -60,-11 -79,-34 -18,-22 -28,-53 -28,-93l0 -294 103 -12 0 269c0,25 3,42 10,53 7,11 19,16 36,16 18,0 42,-9 71,-28l0 -298 103 -12zm332 -5c35,0 61,11 79,32 18,21 27,52 27,92l0 301 -103 0 0 -265c0,-17 -1,-30 -4,-39 -3,-10 -8,-17 -14,-21 -7,-4 -16,-6 -29,-6 -20,0 -44,9 -72,29l0 302 -103 0 0 -408 103 -12 0 40c19,-14 38,-25 57,-33 19,-8 38,-12 59,-12zm536 -215l0 640 -88 0 -7 -28c-34,27 -68,41 -104,41 -47,0 -83,-18 -107,-53 -24,-36 -36,-88 -36,-156 0,-54 9,-98 26,-132 17,-34 39,-59 66,-74 28,-15 56,-23 87,-23 19,0 39,4 60,10l0 -213 103 -12zm-236 443c0,40 6,70 16,88 11,19 27,29 48,29 12,0 24,-2 35,-7 11,-4 22,-10 34,-19l0 -224c-16,-5 -30,-7 -44,-7 -27,0 -49,12 -65,36 -16,24 -24,59 -24,104zm653 -46c0,12 -1,34 -3,64l-219 0c3,34 12,59 28,76 16,16 34,24 56,24 16,0 32,-3 47,-8 15,-6 32,-15 49,-27l35 75c-18,16 -39,29 -63,38 -24,9 -50,14 -78,14 -33,0 -63,-7 -90,-22 -26,-15 -47,-38 -63,-70 -16,-32 -24,-73 -24,-124 0,-46 6,-86 20,-119 13,-34 33,-59 58,-77 26,-17 56,-26 91,-26 33,0 62,8 85,24 24,16 42,38 53,65 12,27 18,58 18,93zm-156 -98c-17,0 -31,7 -41,20 -11,13 -18,34 -22,62l116 0 0 -3c0,-28 -5,-48 -14,-60 -10,-12 -23,-19 -39,-19zm445 -84c15,0 28,3 41,9l-15 125c-8,-4 -16,-7 -22,-8 -7,-2 -14,-3 -23,-3 -13,0 -26,4 -39,11 -12,8 -24,21 -37,41l0 250 -102 0 0 -408 102 -12 0 58c26,-42 57,-63 95,-63zm410 438c-33,0 -62,-5 -87,-14 -26,-10 -50,-24 -72,-43l43 -79c19,16 38,28 58,35 19,7 37,11 55,11 17,0 29,-3 37,-10 8,-6 12,-14 12,-24 0,-7 -2,-13 -5,-18 -3,-5 -9,-10 -18,-16 -10,-5 -23,-10 -42,-16l-22 -8c-36,-12 -63,-28 -79,-47 -16,-20 -24,-46 -24,-80 0,-25 6,-48 18,-67 11,-20 28,-35 49,-46 21,-10 46,-16 73,-16 52,0 98,15 140,45l-40 80c-21,-13 -38,-22 -53,-27 -14,-5 -29,-7 -46,-7 -13,0 -22,3 -29,8 -6,6 -9,13 -9,21 0,6 1,11 4,15 2,4 7,8 14,11 7,3 18,8 32,12l26 9c39,12 68,29 86,51 18,22 27,49 27,83 0,26 -5,50 -16,70 -11,21 -27,37 -50,49 -22,12 -50,18 -82,18zm536 -256c0,12 -1,34 -3,64l-219 0c3,34 13,59 28,76 16,16 35,24 57,24 16,0 31,-3 47,-8 15,-6 31,-15 48,-27l35 75c-18,16 -39,29 -63,38 -24,9 -49,14 -77,14 -34,0 -64,-7 -90,-22 -27,-15 -48,-38 -64,-70 -16,-32 -24,-73 -24,-124 0,-46 7,-86 20,-119 14,-34 33,-59 59,-77 25,-17 55,-26 90,-26 34,0 62,8 86,24 23,16 41,38 53,65 11,27 17,58 17,93zm-156 -98c-17,0 -31,7 -41,20 -10,13 -18,34 -22,62l117 0 0 -3c0,-28 -5,-48 -15,-60 -10,-12 -23,-19 -39,-19zm397 354c-50,0 -90,-16 -122,-48 -32,-31 -48,-85 -48,-161 0,-52 9,-95 26,-129 18,-35 40,-60 67,-76 28,-16 56,-24 86,-24 21,0 41,3 58,9 18,6 37,16 59,30l-36 81c-16,-10 -30,-16 -41,-20 -11,-4 -22,-5 -33,-5 -24,0 -44,11 -58,33 -15,22 -22,55 -22,100 0,42 7,71 22,87 14,16 33,24 57,24 14,0 27,-2 40,-8 12,-5 26,-13 41,-24l37 80c-44,34 -88,51 -133,51zm439 -30c-30,20 -63,30 -100,30 -18,0 -36,-4 -52,-13 -15,-9 -28,-23 -38,-43 -10,-19 -16,-44 -16,-74l0 -196 -62 0 0 -98 62 0 0 -92 103 -17 0 109 95 0 -11 98 -84 0 0 177c0,18 3,31 8,38 5,8 13,11 22,11 7,0 14,-1 21,-3 6,-2 14,-5 24,-10l28 83zm124 -455c-11,0 -22,-4 -32,-11 -10,-7 -19,-16 -25,-27 -6,-12 -9,-25 -9,-39 0,-14 3,-27 9,-39 6,-11 15,-21 25,-28 10,-7 21,-10 32,-10 12,0 24,3 34,10 10,7 19,17 25,28 6,12 9,25 9,39 0,14 -3,27 -9,39 -6,11 -15,20 -25,27 -10,7 -22,11 -34,11zm-49 472l0 -408 102 -12 0 420 -102 0zm371 13c-38,0 -70,-10 -97,-29 -27,-20 -46,-46 -60,-79 -13,-33 -19,-70 -19,-111 0,-53 8,-95 25,-127 17,-32 39,-56 67,-70 28,-14 59,-22 94,-22 38,0 71,10 97,28 27,19 47,45 60,77 13,33 19,71 19,115 0,50 -8,92 -24,124 -17,33 -39,57 -67,72 -28,15 -60,22 -95,22zm5 -92c28,0 47,-12 58,-35 12,-22 17,-53 17,-92 0,-42 -6,-73 -18,-94 -12,-22 -30,-32 -55,-32 -27,0 -47,10 -59,31 -12,21 -18,53 -18,95 0,39 6,70 19,93 12,22 31,34 56,34zm492 -346c35,0 61,11 79,32 18,21 27,52 27,92l0 301 -103 0 0 -265c0,-17 -1,-30 -4,-39 -3,-10 -7,-17 -14,-21 -7,-4 -16,-6 -29,-6 -20,0 -44,9 -72,29l0 302 -102 0 0 -408 102 -12 0 40c19,-14 38,-25 57,-33 19,-8 39,-12 59,-12zm736 193l0 103 -59 0 0 129 -105 0 0 -129 -218 0 0 -58 133 -405 117 0 -127 360 95 0 21 -146 84 0 0 146 59 0zm401 -204c0,30 -5,60 -15,90 -10,29 -28,63 -54,101 -26,39 -62,86 -108,141l176 0 0 104 -334 0 0 -59c62,-74 109,-133 140,-177 32,-43 55,-79 67,-106 12,-27 18,-52 18,-75 0,-25 -6,-44 -17,-57 -12,-13 -29,-20 -49,-20 -18,0 -35,5 -51,14 -16,10 -33,23 -52,42l-55 -79c23,-27 50,-48 79,-63 30,-15 60,-23 91,-23 32,0 60,6 85,19 25,12 44,30 58,55 14,25 21,56 21,93zm439 449c-38,0 -70,-10 -96,-29 -27,-20 -47,-46 -60,-79 -13,-33 -20,-70 -20,-111 0,-53 9,-95 26,-127 17,-32 39,-56 67,-70 28,-14 59,-22 93,-22 39,0 71,10 98,28 26,19 46,45 59,77 14,33 20,71 20,115 0,50 -8,92 -25,124 -16,33 -38,57 -66,72 -28,15 -60,22 -96,22zm6 -92c28,0 47,-12 58,-35 11,-22 17,-53 17,-92 0,-42 -6,-73 -18,-94 -12,-22 -30,-32 -55,-32 -27,0 -47,10 -59,31 -12,21 -18,53 -18,95 0,39 6,70 18,93 13,22 32,34 57,34zm438 -453c-15,0 -26,5 -34,17 -9,12 -13,28 -13,49l0 55 89 0 -11 98 -78 0 0 313 -102 0 0 -313 -51 0 0 -98 51 0 0 -52c0,-33 5,-62 15,-89 11,-26 27,-46 47,-61 21,-15 46,-23 75,-23 17,0 32,2 45,5 14,3 27,8 41,15l-25 96c-10,-4 -18,-8 -25,-10 -8,-1 -16,-2 -24,-2zm515 515c-30,20 -63,30 -100,30 -18,0 -36,-4 -52,-13 -15,-9 -28,-23 -38,-43 -11,-19 -16,-44 -16,-74l0 -196 -62 0 0 -98 62 0 0 -92 103 -17 0 109 95 0 -11 98 -84 0 0 177c0,18 3,31 8,38 5,8 13,11 22,11 7,0 14,-1 21,-3 6,-2 14,-5 24,-10l28 83zm292 -408c35,0 61,11 79,32 18,20 26,51 26,91l0 302 -102 0 0 -265c0,-17 -1,-30 -4,-39 -3,-10 -8,-17 -14,-21 -7,-4 -17,-6 -29,-6 -22,0 -46,8 -71,26l0 305 -103 0 0 -628 103 -12 0 255c35,-26 73,-40 115,-40zm519 182c0,12 -1,34 -3,64l-219 0c3,34 13,59 28,76 16,16 35,24 56,24 17,0 32,-3 47,-8 16,-6 32,-15 49,-27l35 75c-18,16 -39,29 -63,38 -24,9 -50,14 -77,14 -34,0 -64,-7 -90,-22 -27,-15 -48,-38 -64,-70 -16,-32 -24,-73 -24,-124 0,-46 7,-86 20,-119 13,-34 33,-59 58,-77 26,-17 56,-26 91,-26 34,0 62,8 86,24 23,16 41,38 52,65 12,27 18,58 18,93zm-156 -98c-17,0 -31,7 -41,20 -11,13 -18,34 -22,62l116 0 0 -3c0,-28 -5,-48 -14,-60 -10,-12 -23,-19 -39,-19zm-13619 1376c-83,0 -143,-28 -181,-83 -38,-55 -57,-129 -57,-221 0,-75 10,-136 31,-182 22,-47 50,-81 85,-101 35,-20 75,-31 119,-31 31,0 59,5 85,14 26,9 51,22 77,40l-40 96c-36,-28 -75,-42 -118,-42 -86,0 -129,66 -129,198 0,66 12,116 36,150 24,34 58,51 102,51 22,0 42,-3 58,-10 17,-7 35,-17 53,-30l42 92c-27,19 -54,34 -80,44 -26,10 -54,15 -83,15zm395 0c-38,0 -70,-10 -97,-29 -26,-20 -46,-46 -59,-79 -14,-33 -20,-70 -20,-111 0,-53 8,-95 25,-127 17,-33 40,-56 67,-70 28,-14 59,-22 94,-22 38,0 71,10 97,28 27,19 47,45 60,77 13,33 20,71 20,115 0,50 -9,92 -25,124 -16,33 -39,57 -67,72 -28,14 -60,22 -95,22zm6 -92c27,0 46,-12 58,-35 11,-22 16,-53 16,-92 0,-42 -6,-73 -18,-94 -11,-22 -30,-32 -55,-32 -27,0 -46,10 -59,31 -12,21 -18,53 -18,95 0,39 6,70 19,93 12,22 31,34 57,34zm691 -346c32,0 56,11 73,32 17,21 26,51 26,91l0 302 -103 0 0 -265c0,-24 -3,-41 -9,-51 -5,-10 -15,-15 -29,-15 -19,0 -41,8 -66,26l0 3 0 302 -103 0 0 -265c0,-24 -3,-41 -9,-51 -6,-10 -15,-15 -29,-15 -20,0 -42,8 -67,26l0 305 -102 0 0 -408 102 -12 0 36c35,-27 71,-41 109,-41 38,0 66,16 83,46 20,-15 40,-26 61,-34 20,-8 41,-12 63,-12zm415 0c46,0 81,18 103,53 23,36 34,88 34,157 0,54 -9,98 -26,132 -18,33 -41,58 -68,73 -28,15 -58,23 -89,23 -19,0 -38,-3 -58,-10l0 167 -102 0 0 -578 102 -12 0 34c35,-26 70,-39 104,-39zm-64 347c30,0 54,-11 70,-34 17,-23 25,-57 25,-103 0,-29 -2,-53 -6,-69 -5,-17 -12,-29 -21,-36 -10,-8 -23,-11 -40,-11 -20,0 -43,8 -68,25l0 224c14,3 28,4 40,4z"/>
   <path class="fil3" d="M4454 10244c44,0 78,11 100,32 23,21 34,55 34,104l0 289 -87 0 -9 -32c-18,17 -37,28 -56,35 -18,7 -38,10 -58,10 -21,0 -40,-5 -56,-15 -16,-9 -29,-23 -38,-40 -9,-18 -13,-38 -13,-60 0,-48 20,-85 59,-110 40,-25 92,-40 156,-43l0 -10c0,-17 -2,-30 -5,-40 -2,-10 -7,-17 -15,-21 -7,-5 -16,-7 -29,-7 -32,0 -69,15 -109,46l-40 -75c28,-21 54,-37 80,-47 26,-10 55,-16 86,-16zm-77 307c0,14 3,24 10,31 7,7 16,10 29,10 21,0 44,-8 70,-24l0 -80c-38,3 -65,10 -83,21 -17,12 -26,26 -26,42zm539 -307c35,0 61,11 79,32 18,21 27,51 27,92l0 301 -103 0 0 -265c0,-17 -1,-30 -4,-40 -3,-9 -7,-16 -14,-20 -7,-4 -16,-6 -29,-6 -20,0 -44,9 -72,29l0 302 -102 0 0 -408 102 -12 0 40c19,-14 38,-25 57,-33 19,-8 39,-12 59,-12zm266 -47c-12,0 -23,-4 -33,-11 -10,-7 -18,-16 -24,-27 -6,-12 -9,-25 -9,-39 0,-14 3,-27 9,-39 6,-12 14,-21 24,-28 10,-7 21,-10 33,-10 12,0 23,3 33,10 11,7 19,16 25,28 6,12 9,25 9,39 0,14 -3,27 -9,39 -6,11 -14,20 -25,27 -10,7 -21,11 -33,11zm-50 472l0 -408 103 -12 0 420 -103 0zm520 -243c0,12 -1,34 -3,64l-219 0c3,34 13,59 28,75 16,17 35,25 56,25 17,0 32,-3 48,-9 15,-5 31,-14 48,-26l35 75c-18,16 -39,29 -63,38 -24,9 -50,14 -77,14 -34,0 -64,-7 -90,-22 -27,-15 -48,-38 -64,-70 -16,-32 -24,-73 -24,-124 0,-46 7,-86 20,-119 14,-34 33,-59 59,-77 25,-17 55,-26 90,-26 34,0 62,8 86,24 23,16 41,38 52,65 12,27 18,58 18,93zm-156 -98c-17,0 -31,7 -41,20 -11,13 -18,34 -22,62l116 0 0 -3c0,-28 -4,-48 -14,-60 -10,-12 -23,-19 -39,-19zm370 354c-33,0 -62,-5 -87,-14 -26,-10 -50,-24 -72,-43l43 -79c19,16 38,28 57,35 20,7 38,10 56,10 17,0 29,-3 37,-9 8,-6 12,-14 12,-24 0,-7 -2,-13 -5,-18 -3,-5 -9,-10 -18,-16 -10,-5 -24,-10 -42,-17l-22 -7c-37,-12 -63,-28 -79,-47 -16,-20 -24,-46 -24,-80 0,-25 6,-48 18,-67 11,-20 28,-35 49,-46 21,-10 45,-16 73,-16 51,0 98,15 140,45l-40 80c-21,-13 -39,-22 -53,-27 -14,-5 -30,-7 -46,-7 -13,0 -22,3 -29,8 -6,6 -9,13 -9,21 0,6 1,11 3,15 3,4 8,8 15,11 6,3 17,8 32,12l26 9c39,12 68,29 86,51 18,22 27,49 27,83 0,26 -5,50 -16,70 -11,21 -28,37 -50,49 -23,12 -50,18 -82,18zm678 -605l177 585 0 7 -115 0 -39 -141 -183 0 -38 141 -113 0 0 -7 176 -585 135 0zm-131 346l125 0 -63 -225 -62 225zm527 259c-50,0 -91,-16 -123,-48 -31,-31 -47,-85 -47,-161 0,-52 8,-95 26,-130 17,-34 40,-59 67,-75 27,-16 56,-24 86,-24 21,0 40,3 58,9 17,6 37,16 59,30l-36 81c-17,-10 -30,-16 -41,-20 -12,-4 -23,-6 -34,-6 -24,0 -43,12 -57,34 -15,22 -22,55 -22,100 0,42 7,71 22,87 14,16 33,24 56,24 15,0 28,-2 40,-8 13,-5 27,-13 42,-24l36 80c-44,34 -88,51 -132,51zm439 -30c-30,20 -63,30 -100,30 -19,0 -36,-4 -52,-13 -16,-9 -29,-23 -39,-43 -10,-19 -15,-44 -15,-74l0 -196 -62 0 0 -98 62 0 0 -92 102 -18 0 110 95 0 -10 98 -85 0 0 177c0,18 3,31 8,38 6,8 13,11 23,11 7,0 14,-1 20,-3 7,-2 15,-5 25,-10l28 83zm57 140c27,-42 41,-75 41,-98 0,-8 -2,-14 -4,-19 -3,-5 -7,-10 -12,-16 -4,-4 -8,-8 -11,-12 -3,-5 -6,-10 -8,-17 -2,-6 -3,-14 -3,-23 0,-12 2,-23 7,-34 5,-11 12,-20 22,-27 9,-7 20,-10 32,-10 19,0 34,8 45,24 11,15 17,37 17,64 0,32 -7,64 -20,97 -14,32 -33,67 -58,103l-48 -32zm700 -559c0,30 -5,60 -15,89 -10,30 -28,64 -54,102 -26,39 -62,86 -108,141l176 0 0 104 -334 0 0 -59c62,-75 109,-133 140,-177 32,-44 55,-79 67,-106 12,-27 18,-52 18,-75 0,-25 -6,-44 -17,-57 -12,-13 -29,-20 -50,-20 -17,0 -34,5 -50,14 -16,10 -33,23 -52,42l-55 -79c23,-27 50,-48 79,-63 30,-15 60,-23 91,-23 32,0 60,6 85,19 24,12 44,30 58,55 14,25 21,56 21,93zm269 449c-37,0 -69,-11 -96,-33 -27,-23 -48,-57 -62,-103 -15,-46 -22,-103 -22,-173 0,-79 9,-141 28,-187 18,-46 42,-77 70,-95 29,-18 59,-27 91,-27 56,0 100,25 132,75 32,50 48,128 48,236 0,114 -19,194 -55,239 -37,45 -82,68 -134,68zm2 -110c17,0 32,-6 43,-19 11,-13 20,-34 25,-62 6,-29 8,-69 8,-118 0,-67 -5,-117 -16,-150 -11,-33 -30,-49 -56,-49 -17,0 -32,7 -43,20 -11,13 -19,34 -25,64 -5,29 -8,68 -8,117 0,67 5,117 16,149 11,32 30,48 56,48zm508 -7l91 0 0 104 -316 0 0 -104 120 0 0 -355 -92 52 -41 -72 133 -113 105 0 0 488zm530 -488l0 58c-105,180 -167,358 -185,534l-112 0c8,-78 26,-159 55,-243 29,-85 69,-166 118,-245l-220 0 11 -104 333 0z"/>
  </g>
  <rect class="fil4" width="17621" height="11228"/>
 </g>
</svg>